<?xml version="1.0" encoding="UTF-8" standalone="no"?>
<!-- Created with Inkscape (http://www.inkscape.org/) -->

<svg
   xmlns:dc="http://purl.org/dc/elements/1.1/"
   xmlns:cc="http://creativecommons.org/ns#"
   xmlns:rdf="http://www.w3.org/1999/02/22-rdf-syntax-ns#"
   xmlns:svg="http://www.w3.org/2000/svg"
   xmlns="http://www.w3.org/2000/svg"
   xmlns:sodipodi="http://sodipodi.sourceforge.net/DTD/sodipodi-0.dtd"
   xmlns:inkscape="http://www.inkscape.org/namespaces/inkscape"
   version="1.1"
   id="svg22327"
   xml:space="preserve"
   width="793.70087"
   height="1122.5197"
   viewBox="0 0 793.70087 1122.5197"
   sodipodi:docname="Escola 4_0 Placa Base MDF V2.svg"
   inkscape:version="0.92.4 (5da689c313, 2019-01-14)"><metadata
     id="metadata22333"><rdf:RDF><cc:Work
         rdf:about=""><dc:format>image/svg+xml</dc:format><dc:type
           rdf:resource="http://purl.org/dc/dcmitype/StillImage" /><dc:title></dc:title></cc:Work></rdf:RDF></metadata><defs
     id="defs22331" /><sodipodi:namedview
     pagecolor="#ffffff"
     bordercolor="#666666"
     borderopacity="1"
     objecttolerance="10"
     gridtolerance="10"
     guidetolerance="10"
     inkscape:pageopacity="0"
     inkscape:pageshadow="2"
     inkscape:window-width="1920"
     inkscape:window-height="986"
     id="namedview22329"
     showgrid="false"
     showguides="true"
     inkscape:zoom="0.84096523"
     inkscape:cx="347.15005"
     inkscape:cy="232.29338"
     inkscape:window-x="-11"
     inkscape:window-y="-11"
     inkscape:window-maximized="1"
     inkscape:current-layer="g22335"><sodipodi:guide
       position="0,0"
       orientation="0,793.70087"
       id="guide23101"
       inkscape:locked="false" /><sodipodi:guide
       position="793.70088,0"
       orientation="-1122.5197,0"
       id="guide23103"
       inkscape:locked="false" /><sodipodi:guide
       position="793.70088,1122.5197"
       orientation="0,-793.70087"
       id="guide23105"
       inkscape:locked="false" /><sodipodi:guide
       position="0,1122.5197"
       orientation="1122.5197,0"
       id="guide23107"
       inkscape:locked="false" /></sodipodi:namedview><g
     id="g22335"
     inkscape:groupmode="layer"
     inkscape:label="Escola 4_0 Placa Base MDF V1"
     transform="matrix(1.3333333,0,0,1.3333333,0,3.3396326e-5)"><g
       id="g23376"
       transform="translate(-1.8918622,-2.5224829)"><g
         id="g22339"
         transform="matrix(0,1,1,0,844.15375,388.82709)"><path
           d="m 14.172,-246.613 h 425.199 c 7.793,0 14.172,-6.379 14.172,-14.176 v -566.926 c 0,-7.797 -6.379,-14.176 -14.172,-14.176 H 14.172 C 6.379,-841.891 0,-835.512 0,-827.715 v 566.926 c 0,7.797 6.379,14.176 14.172,14.176 z"
           style="fill:none;stroke:#231f20;stroke-width:0.56690001;stroke-linecap:butt;stroke-linejoin:miter;stroke-miterlimit:22.92558479;stroke-dasharray:none;stroke-opacity:1"
           id="path22341"
           inkscape:connector-curvature="0" /></g><g
         id="g22343"
         transform="matrix(0,1,1,0,844.15375,388.82709)"><path
           d="m 85.039,-752.316 c 2.504,0 4.535,-2.028 4.535,-4.536 0,-2.503 -2.031,-4.535 -4.535,-4.535 -2.504,0 -4.535,2.032 -4.535,4.535 0,2.508 2.031,4.536 4.535,4.536 z"
           style="fill:none;stroke:#231f20;stroke-width:0.56690001;stroke-linecap:butt;stroke-linejoin:miter;stroke-miterlimit:22.92558479;stroke-dasharray:none;stroke-opacity:1"
           id="path22345"
           inkscape:connector-curvature="0" /></g><g
         id="g22347"
         transform="matrix(0,1,1,0,844.15375,388.82709)"><path
           d="m 226.773,-752.316 c 2.504,0 4.536,-2.028 4.536,-4.536 0,-2.503 -2.032,-4.535 -4.536,-4.535 -2.507,0 -4.539,2.032 -4.539,4.535 0,2.508 2.032,4.536 4.539,4.536 z"
           style="fill:none;stroke:#231f20;stroke-width:0.56690001;stroke-linecap:butt;stroke-linejoin:miter;stroke-miterlimit:22.92558479;stroke-dasharray:none;stroke-opacity:1"
           id="path22349"
           inkscape:connector-curvature="0" /></g><g
         id="g22351"
         transform="matrix(0,1,1,0,844.15375,388.82709)"><path
           d="m 368.504,-752.316 c 2.504,0 4.535,-2.028 4.535,-4.536 0,-2.503 -2.031,-4.535 -4.535,-4.535 -2.504,0 -4.535,2.032 -4.535,4.535 0,2.508 2.031,4.536 4.535,4.536 z"
           style="fill:none;stroke:#231f20;stroke-width:0.56690001;stroke-linecap:butt;stroke-linejoin:miter;stroke-miterlimit:22.92558479;stroke-dasharray:none;stroke-opacity:1"
           id="path22353"
           inkscape:connector-curvature="0" /></g><g
         id="g22355"
         transform="matrix(0,1,1,0,844.15375,388.82709)"><path
           d="m 85.039,-610.582 c 2.504,0 4.535,-2.031 4.535,-4.535 0,-2.508 -2.031,-4.535 -4.535,-4.535 -2.504,0 -4.535,2.027 -4.535,4.535 0,2.504 2.031,4.535 4.535,4.535 z"
           style="fill:none;stroke:#231f20;stroke-width:0.56690001;stroke-linecap:butt;stroke-linejoin:miter;stroke-miterlimit:22.92558479;stroke-dasharray:none;stroke-opacity:1"
           id="path22357"
           inkscape:connector-curvature="0" /></g><g
         id="g22359"
         transform="matrix(0,1,1,0,844.15375,388.82709)"><path
           d="m 226.773,-610.582 c 2.504,0 4.536,-2.031 4.536,-4.535 0,-2.508 -2.032,-4.535 -4.536,-4.535 -2.507,0 -4.539,2.027 -4.539,4.535 0,2.504 2.032,4.535 4.539,4.535 z"
           style="fill:none;stroke:#231f20;stroke-width:0.56690001;stroke-linecap:butt;stroke-linejoin:miter;stroke-miterlimit:22.92558479;stroke-dasharray:none;stroke-opacity:1"
           id="path22361"
           inkscape:connector-curvature="0" /></g><g
         id="g22363"
         transform="matrix(0,1,1,0,844.15375,388.82709)"><path
           d="m 368.504,-610.582 c 2.504,0 4.535,-2.031 4.535,-4.535 0,-2.508 -2.031,-4.535 -4.535,-4.535 -2.504,0 -4.535,2.027 -4.535,4.535 0,2.504 2.031,4.535 4.535,4.535 z"
           style="fill:none;stroke:#231f20;stroke-width:0.56690001;stroke-linecap:butt;stroke-linejoin:miter;stroke-miterlimit:22.92558479;stroke-dasharray:none;stroke-opacity:1"
           id="path22365"
           inkscape:connector-curvature="0" /></g><g
         id="g22367"
         transform="matrix(0,1,1,0,844.15375,388.82709)"><path
           d="m 85.039,-468.852 c 2.504,0 4.535,-2.031 4.535,-4.535 0,-2.504 -2.031,-4.535 -4.535,-4.535 -2.504,0 -4.535,2.031 -4.535,4.535 0,2.504 2.031,4.535 4.535,4.535 z"
           style="fill:none;stroke:#231f20;stroke-width:0.56690001;stroke-linecap:butt;stroke-linejoin:miter;stroke-miterlimit:22.92558479;stroke-dasharray:none;stroke-opacity:1"
           id="path22369"
           inkscape:connector-curvature="0" /></g><g
         id="g22371"
         transform="matrix(0,1,1,0,844.15375,388.82709)"><path
           d="m 226.773,-468.852 c 2.504,0 4.536,-2.031 4.536,-4.535 0,-2.504 -2.032,-4.535 -4.536,-4.535 -2.507,0 -4.539,2.031 -4.539,4.535 0,2.504 2.032,4.535 4.539,4.535 z"
           style="fill:none;stroke:#231f20;stroke-width:0.56690001;stroke-linecap:butt;stroke-linejoin:miter;stroke-miterlimit:22.92558479;stroke-dasharray:none;stroke-opacity:1"
           id="path22373"
           inkscape:connector-curvature="0" /></g><g
         id="g22375"
         transform="matrix(0,1,1,0,844.15375,388.82709)"><path
           d="m 368.504,-468.852 c 2.504,0 4.535,-2.031 4.535,-4.535 0,-2.504 -2.031,-4.535 -4.535,-4.535 -2.504,0 -4.535,2.031 -4.535,4.535 0,2.504 2.031,4.535 4.535,4.535 z"
           style="fill:none;stroke:#231f20;stroke-width:0.56690001;stroke-linecap:butt;stroke-linejoin:miter;stroke-miterlimit:22.92558479;stroke-dasharray:none;stroke-opacity:1"
           id="path22377"
           inkscape:connector-curvature="0" /></g><g
         id="g22379"
         transform="matrix(0,1,1,0,844.15375,388.82709)"><path
           d="m 85.039,-327.117 c 2.504,0 4.535,-2.031 4.535,-4.535 0,-2.508 -2.031,-4.536 -4.535,-4.536 -2.504,0 -4.535,2.028 -4.535,4.536 0,2.504 2.031,4.535 4.535,4.535 z"
           style="fill:none;stroke:#231f20;stroke-width:0.56690001;stroke-linecap:butt;stroke-linejoin:miter;stroke-miterlimit:22.92558479;stroke-dasharray:none;stroke-opacity:1"
           id="path22381"
           inkscape:connector-curvature="0" /></g><g
         id="g22383"
         transform="matrix(0,1,1,0,844.15375,388.82709)"><path
           d="m 226.773,-327.117 c 2.504,0 4.536,-2.031 4.536,-4.535 0,-2.508 -2.032,-4.536 -4.536,-4.536 -2.507,0 -4.539,2.028 -4.539,4.536 0,2.504 2.032,4.535 4.539,4.535 z"
           style="fill:none;stroke:#231f20;stroke-width:0.56690001;stroke-linecap:butt;stroke-linejoin:miter;stroke-miterlimit:22.92558479;stroke-dasharray:none;stroke-opacity:1"
           id="path22385"
           inkscape:connector-curvature="0" /></g><g
         id="g22387"
         transform="matrix(0,1,1,0,844.15375,388.82709)"><path
           d="m 368.504,-327.117 c 2.504,0 4.535,-2.031 4.535,-4.535 0,-2.508 -2.031,-4.536 -4.535,-4.536 -2.504,0 -4.535,2.028 -4.535,4.536 0,2.504 2.031,4.535 4.535,4.535 z"
           style="fill:none;stroke:#231f20;stroke-width:0.56690001;stroke-linecap:butt;stroke-linejoin:miter;stroke-miterlimit:22.92558479;stroke-dasharray:none;stroke-opacity:1"
           id="path22389"
           inkscape:connector-curvature="0" /></g><path
         d="m 248.53675,818.84709 h 2.156 l 2.688,10.234 2.687,-10.234 h 2.547 l 2.687,10.234 2.688,-10.234 h 2.156 l -3.437,13.125 h -2.547 l -2.813,-10.766 -2.843,10.766 h -2.547 z"
         style="fill:#ed1c24;fill-opacity:1;fill-rule:nonzero;stroke:none"
         id="path22391"
         inkscape:connector-curvature="0" /><path
         d="m 265.86475,818.84709 h 2.156 l 2.688,10.234 2.687,-10.234 h 2.547 l 2.688,10.234 2.687,-10.234 h 2.156 l -3.437,13.125 h -2.547 l -2.813,-10.766 -2.843,10.766 h -2.547 z"
         style="fill:#ed1c24;fill-opacity:1;fill-rule:nonzero;stroke:none"
         id="path22393"
         inkscape:connector-curvature="0" /><path
         d="m 283.19275,818.84709 h 2.156 l 2.688,10.234 2.687,-10.234 h 2.547 l 2.688,10.234 2.687,-10.234 h 2.156 l -3.437,13.125 h -2.547 l -2.812,-10.766 -2.844,10.766 h -2.547 z"
         style="fill:#ed1c24;fill-opacity:1;fill-rule:nonzero;stroke:none"
         id="path22395"
         inkscape:connector-curvature="0" /><path
         d="m 303.23975,828.98709 v 2.984 h -2.484 v -2.984 z"
         style="fill:#ed1c24;fill-opacity:1;fill-rule:nonzero;stroke:none"
         id="path22397"
         inkscape:connector-curvature="0" /><path
         d="m 318.34875,824.86209 v 1.063 h -9.906 c 0.094,1.48 0.539,2.609 1.344,3.39 0.801,0.782 1.914,1.172 3.344,1.172 0.82,0 1.625,-0.098 2.406,-0.297 0.781,-0.207 1.551,-0.515 2.312,-0.922 v 2.032 c -0.773,0.336 -1.562,0.586 -2.375,0.75 -0.812,0.175 -1.636,0.265 -2.468,0.265 -2.094,0 -3.758,-0.609 -4.985,-1.828 -1.219,-1.219 -1.828,-2.867 -1.828,-4.953 0,-2.145 0.578,-3.848 1.734,-5.109 1.165,-1.258 2.735,-1.891 4.704,-1.891 1.757,0 3.148,0.57 4.171,1.703 1.032,1.137 1.547,2.68 1.547,4.625 z m -2.156,-0.625 c -0.012,-1.176 -0.34,-2.113 -0.984,-2.812 -0.649,-0.707 -1.5,-1.063 -2.563,-1.063 -1.199,0 -2.164,0.34 -2.89,1.016 -0.719,0.679 -1.137,1.637 -1.25,2.875 z"
         style="fill:#ed1c24;fill-opacity:1;fill-rule:nonzero;stroke:none"
         id="path22399"
         inkscape:connector-curvature="0" /><path
         d="m 328.83375,819.23709 v 2.031 c -0.606,-0.312 -1.235,-0.546 -1.891,-0.703 -0.656,-0.156 -1.34,-0.234 -2.047,-0.234 -1.062,0 -1.867,0.168 -2.406,0.5 -0.531,0.324 -0.797,0.812 -0.797,1.469 0,0.5 0.188,0.898 0.563,1.187 0.382,0.281 1.156,0.555 2.312,0.813 l 0.75,0.156 c 1.531,0.336 2.613,0.797 3.25,1.391 0.645,0.593 0.969,1.429 0.969,2.5 0,1.218 -0.485,2.187 -1.453,2.906 -0.961,0.711 -2.282,1.062 -3.969,1.062 -0.699,0 -1.434,-0.074 -2.203,-0.218 -0.762,-0.133 -1.563,-0.336 -2.406,-0.61 v -2.219 c 0.8,0.407 1.586,0.715 2.359,0.922 0.769,0.211 1.535,0.313 2.297,0.313 1.019,0 1.801,-0.172 2.344,-0.516 0.55,-0.351 0.828,-0.844 0.828,-1.469 0,-0.593 -0.2,-1.046 -0.594,-1.359 -0.398,-0.312 -1.262,-0.609 -2.594,-0.891 l -0.75,-0.187 c -1.344,-0.281 -2.312,-0.707 -2.906,-1.281 -0.594,-0.582 -0.891,-1.383 -0.891,-2.407 0,-1.226 0.438,-2.175 1.313,-2.843 0.875,-0.676 2.117,-1.016 3.734,-1.016 0.789,0 1.535,0.059 2.235,0.172 0.707,0.117 1.359,0.293 1.953,0.531 z"
         style="fill:#ed1c24;fill-opacity:1;fill-rule:nonzero;stroke:none"
         id="path22401"
         inkscape:connector-curvature="0" /><path
         d="m 341.91175,819.34709 v 2.015 c -0.606,-0.332 -1.215,-0.582 -1.828,-0.75 -0.618,-0.164 -1.235,-0.25 -1.86,-0.25 -1.398,0 -2.484,0.445 -3.265,1.328 -0.774,0.887 -1.157,2.133 -1.157,3.735 0,1.593 0.383,2.84 1.157,3.734 0.781,0.887 1.867,1.328 3.265,1.328 0.625,0 1.242,-0.082 1.86,-0.25 0.613,-0.176 1.222,-0.43 1.828,-0.765 v 2 c -0.594,0.281 -1.215,0.492 -1.86,0.625 -0.648,0.144 -1.336,0.218 -2.062,0.218 -1.981,0 -3.555,-0.617 -4.719,-1.859 -1.156,-1.25 -1.734,-2.926 -1.734,-5.031 0,-2.145 0.586,-3.828 1.765,-5.047 1.176,-1.227 2.786,-1.844 4.829,-1.844 0.664,0 1.312,0.07 1.937,0.203 0.633,0.137 1.25,0.34 1.844,0.61 z"
         style="fill:#ed1c24;fill-opacity:1;fill-rule:nonzero;stroke:none"
         id="path22403"
         inkscape:connector-curvature="0" /><path
         d="m 349.55175,820.36209 c -1.156,0 -2.074,0.453 -2.75,1.36 -0.668,0.898 -1,2.132 -1,3.703 0,1.562 0.332,2.797 1,3.703 0.676,0.906 1.594,1.359 2.75,1.359 1.157,0 2.067,-0.453 2.735,-1.359 0.676,-0.906 1.015,-2.141 1.015,-3.703 0,-1.563 -0.339,-2.797 -1.015,-3.703 -0.668,-0.907 -1.578,-1.36 -2.735,-1.36 z m 0,-1.828 c 1.875,0 3.348,0.609 4.422,1.828 1.071,1.219 1.61,2.906 1.61,5.063 0,2.148 -0.539,3.836 -1.61,5.062 -1.074,1.219 -2.547,1.828 -4.422,1.828 -1.875,0 -3.351,-0.609 -4.421,-1.828 -1.063,-1.226 -1.594,-2.914 -1.594,-5.062 0,-2.157 0.531,-3.844 1.594,-5.063 1.07,-1.219 2.546,-1.828 4.421,-1.828 z"
         style="fill:#ed1c24;fill-opacity:1;fill-rule:nonzero;stroke:none"
         id="path22405"
         inkscape:connector-curvature="0" /><path
         d="m 359.97375,813.73709 v 18.234 h -2.156 v -18.234 z"
         style="fill:#ed1c24;fill-opacity:1;fill-rule:nonzero;stroke:none"
         id="path22407"
         inkscape:connector-curvature="0" /><path
         d="m 369.11475,825.37809 c -1.75,0 -2.965,0.199 -3.641,0.594 -0.668,0.398 -1,1.074 -1,2.031 0,0.773 0.25,1.383 0.75,1.828 0.508,0.449 1.196,0.672 2.063,0.672 1.195,0 2.156,-0.422 2.875,-1.266 0.726,-0.851 1.094,-1.984 1.094,-3.39 v -0.469 z m 4.297,-0.891 v 7.485 h -2.156 v -2 c -0.493,0.804 -1.106,1.398 -1.844,1.781 -0.731,0.375 -1.625,0.562 -2.688,0.562 -1.343,0 -2.418,-0.375 -3.218,-1.125 -0.793,-0.758 -1.188,-1.773 -1.188,-3.047 0,-1.468 0.492,-2.578 1.484,-3.328 0.989,-0.75 2.461,-1.125 4.422,-1.125 h 3.032 v -0.218 c 0,-0.989 -0.329,-1.754 -0.985,-2.297 -0.648,-0.539 -1.562,-0.813 -2.75,-0.813 -0.75,0 -1.48,0.09 -2.187,0.266 -0.711,0.179 -1.391,0.449 -2.047,0.812 v -2 c 0.789,-0.301 1.555,-0.523 2.297,-0.672 0.738,-0.156 1.461,-0.234 2.172,-0.234 1.894,0 3.312,0.496 4.25,1.484 0.937,0.981 1.406,2.469 1.406,4.469 z"
         style="fill:#ed1c24;fill-opacity:1;fill-rule:nonzero;stroke:none"
         id="path22409"
         inkscape:connector-curvature="0" /><path
         d="m 383.30175,816.53409 -5.984,9.344 h 5.984 z m -0.625,-2.062 h 2.969 v 11.406 h 2.5 v 1.969 h -2.5 v 4.125 h -2.344 v -4.125 h -7.906 v -2.282 z"
         style="fill:#ed1c24;fill-opacity:1;fill-rule:nonzero;stroke:none"
         id="path22411"
         inkscape:connector-curvature="0" /><path
         d="m 391.91175,830.00309 v 6.969 h -2.156 v -18.125 h 2.156 v 1.984 c 0.457,-0.781 1.031,-1.359 1.719,-1.734 0.695,-0.375 1.523,-0.563 2.484,-0.563 1.594,0 2.883,0.637 3.875,1.906 1,1.262 1.5,2.922 1.5,4.985 0,2.062 -0.5,3.73 -1.5,5 -0.992,1.261 -2.281,1.89 -3.875,1.89 -0.961,0 -1.789,-0.187 -2.484,-0.562 -0.688,-0.383 -1.262,-0.969 -1.719,-1.75 z m 7.344,-4.578 c 0,-1.594 -0.329,-2.836 -0.985,-3.735 -0.648,-0.906 -1.543,-1.359 -2.687,-1.359 -1.137,0 -2.032,0.453 -2.688,1.359 -0.656,0.899 -0.984,2.141 -0.984,3.735 0,1.586 0.328,2.828 0.984,3.734 0.656,0.898 1.551,1.344 2.688,1.344 1.144,0 2.039,-0.446 2.687,-1.344 0.656,-0.906 0.985,-2.148 0.985,-3.734 z"
         style="fill:#ed1c24;fill-opacity:1;fill-rule:nonzero;stroke:none"
         id="path22413"
         inkscape:connector-curvature="0" /><path
         d="m 408.25575,820.36209 c -1.157,0 -2.075,0.453 -2.75,1.36 -0.668,0.898 -1,2.132 -1,3.703 0,1.562 0.332,2.797 1,3.703 0.675,0.906 1.593,1.359 2.75,1.359 1.156,0 2.066,-0.453 2.734,-1.359 0.676,-0.906 1.016,-2.141 1.016,-3.703 0,-1.563 -0.34,-2.797 -1.016,-3.703 -0.668,-0.907 -1.578,-1.36 -2.734,-1.36 z m 0,-1.828 c 1.875,0 3.347,0.609 4.421,1.828 1.071,1.219 1.61,2.906 1.61,5.063 0,2.148 -0.539,3.836 -1.61,5.062 -1.074,1.219 -2.546,1.828 -4.421,1.828 -1.875,0 -3.352,-0.609 -4.422,-1.828 -1.063,-1.226 -1.594,-2.914 -1.594,-5.062 0,-2.157 0.531,-3.844 1.594,-5.063 1.07,-1.219 2.547,-1.828 4.422,-1.828 z"
         style="fill:#ed1c24;fill-opacity:1;fill-rule:nonzero;stroke:none"
         id="path22415"
         inkscape:connector-curvature="0" /><path
         d="m 427.42675,824.05009 v 7.922 h -2.156 v -7.86 c 0,-1.238 -0.246,-2.164 -0.734,-2.781 -0.481,-0.613 -1.203,-0.922 -2.172,-0.922 -1.168,0 -2.09,0.371 -2.766,1.109 -0.668,0.743 -1,1.75 -1,3.032 v 7.422 h -2.156 v -13.125 h 2.156 v 2.031 c 0.52,-0.781 1.129,-1.363 1.828,-1.75 0.696,-0.395 1.504,-0.594 2.422,-0.594 1.508,0 2.649,0.469 3.422,1.406 0.77,0.93 1.156,2.297 1.156,4.11 z"
         style="fill:#ed1c24;fill-opacity:1;fill-rule:nonzero;stroke:none"
         id="path22417"
         inkscape:connector-curvature="0" /><path
         d="m 431.98975,815.11209 v 3.735 h 4.453 v 1.671 h -4.453 v 7.125 c 0,1.075 0.144,1.762 0.437,2.063 0.301,0.305 0.899,0.453 1.797,0.453 h 2.219 v 1.813 h -2.219 c -1.668,0 -2.82,-0.305 -3.453,-0.922 -0.625,-0.625 -0.937,-1.758 -0.937,-3.407 v -7.125 h -1.594 v -1.671 h 1.594 v -3.735 z"
         style="fill:#ed1c24;fill-opacity:1;fill-rule:nonzero;stroke:none"
         id="path22419"
         inkscape:connector-curvature="0" /><path
         d="m 441.61475,820.36209 c -1.156,0 -2.074,0.453 -2.75,1.36 -0.668,0.898 -1,2.132 -1,3.703 0,1.562 0.332,2.797 1,3.703 0.676,0.906 1.594,1.359 2.75,1.359 1.156,0 2.066,-0.453 2.734,-1.359 0.676,-0.906 1.016,-2.141 1.016,-3.703 0,-1.563 -0.34,-2.797 -1.016,-3.703 -0.668,-0.907 -1.578,-1.36 -2.734,-1.36 z m 0,-1.828 c 1.875,0 3.348,0.609 4.422,1.828 1.07,1.219 1.609,2.906 1.609,5.063 0,2.148 -0.539,3.836 -1.609,5.062 -1.074,1.219 -2.547,1.828 -4.422,1.828 -1.875,0 -3.352,-0.609 -4.422,-1.828 -1.062,-1.226 -1.594,-2.914 -1.594,-5.062 0,-2.157 0.532,-3.844 1.594,-5.063 1.07,-1.219 2.547,-1.828 4.422,-1.828 z"
         style="fill:#ed1c24;fill-opacity:1;fill-rule:nonzero;stroke:none"
         id="path22421"
         inkscape:connector-curvature="0" /><path
         d="m 448.94275,818.84709 h 10.234 v 1.968 l -8.109,9.438 h 8.109 v 1.719 h -10.531 v -1.969 l 8.11,-9.438 h -7.813 z"
         style="fill:#ed1c24;fill-opacity:1;fill-rule:nonzero;stroke:none"
         id="path22423"
         inkscape:connector-curvature="0" /><path
         d="m 473.09875,824.86209 v 1.063 h -9.906 c 0.094,1.48 0.539,2.609 1.344,3.39 0.801,0.782 1.914,1.172 3.344,1.172 0.82,0 1.625,-0.098 2.406,-0.297 0.781,-0.207 1.551,-0.515 2.312,-0.922 v 2.032 c -0.773,0.336 -1.562,0.586 -2.375,0.75 -0.812,0.175 -1.636,0.265 -2.468,0.265 -2.094,0 -3.758,-0.609 -4.985,-1.828 -1.219,-1.219 -1.828,-2.867 -1.828,-4.953 0,-2.145 0.578,-3.848 1.734,-5.109 1.165,-1.258 2.735,-1.891 4.704,-1.891 1.757,0 3.148,0.57 4.171,1.703 1.032,1.137 1.547,2.68 1.547,4.625 z m -2.156,-0.625 c -0.012,-1.176 -0.34,-2.113 -0.984,-2.812 -0.649,-0.707 -1.5,-1.063 -2.563,-1.063 -1.199,0 -2.164,0.34 -2.89,1.016 -0.719,0.679 -1.137,1.637 -1.25,2.875 z"
         style="fill:#ed1c24;fill-opacity:1;fill-rule:nonzero;stroke:none"
         id="path22425"
         inkscape:connector-curvature="0" /><path
         d="m 482.83375,820.86209 c -0.25,-0.144 -0.516,-0.25 -0.797,-0.312 -0.281,-0.063 -0.594,-0.094 -0.938,-0.094 -1.218,0 -2.156,0.398 -2.812,1.187 -0.656,0.793 -0.985,1.93 -0.985,3.407 v 6.922 h -2.156 v -13.125 h 2.156 v 2.031 c 0.457,-0.789 1.047,-1.379 1.766,-1.766 0.727,-0.383 1.613,-0.578 2.656,-0.578 0.145,0 0.305,0.012 0.485,0.031 0.187,0.012 0.39,0.039 0.609,0.078 z"
         style="fill:#ed1c24;fill-opacity:1;fill-rule:nonzero;stroke:none"
         id="path22427"
         inkscape:connector-curvature="0" /><path
         d="m 488.29475,820.36209 c -1.157,0 -2.075,0.453 -2.75,1.36 -0.668,0.898 -1,2.132 -1,3.703 0,1.562 0.332,2.797 1,3.703 0.675,0.906 1.593,1.359 2.75,1.359 1.156,0 2.066,-0.453 2.734,-1.359 0.676,-0.906 1.016,-2.141 1.016,-3.703 0,-1.563 -0.34,-2.797 -1.016,-3.703 -0.668,-0.907 -1.578,-1.36 -2.734,-1.36 z m 0,-1.828 c 1.875,0 3.347,0.609 4.421,1.828 1.071,1.219 1.61,2.906 1.61,5.063 0,2.148 -0.539,3.836 -1.61,5.062 -1.074,1.219 -2.546,1.828 -4.421,1.828 -1.875,0 -3.352,-0.609 -4.422,-1.828 -1.063,-1.226 -1.594,-2.914 -1.594,-5.062 0,-2.157 0.531,-3.844 1.594,-5.063 1.07,-1.219 2.547,-1.828 4.422,-1.828 z"
         style="fill:#ed1c24;fill-opacity:1;fill-rule:nonzero;stroke:none"
         id="path22429"
         inkscape:connector-curvature="0" /><path
         d="m 499.34175,828.98709 v 2.984 h -2.484 v -2.984 z"
         style="fill:#ed1c24;fill-opacity:1;fill-rule:nonzero;stroke:none"
         id="path22431"
         inkscape:connector-curvature="0" /><path
         d="m 512.66975,819.34709 v 2.015 c -0.606,-0.332 -1.215,-0.582 -1.828,-0.75 -0.618,-0.164 -1.235,-0.25 -1.86,-0.25 -1.398,0 -2.484,0.445 -3.266,1.328 -0.773,0.887 -1.156,2.133 -1.156,3.735 0,1.593 0.383,2.84 1.156,3.734 0.782,0.887 1.868,1.328 3.266,1.328 0.625,0 1.242,-0.082 1.86,-0.25 0.613,-0.176 1.222,-0.43 1.828,-0.765 v 2 c -0.594,0.281 -1.215,0.492 -1.86,0.625 -0.648,0.144 -1.336,0.218 -2.062,0.218 -1.981,0 -3.555,-0.617 -4.719,-1.859 -1.156,-1.25 -1.734,-2.926 -1.734,-5.031 0,-2.145 0.586,-3.828 1.765,-5.047 1.176,-1.227 2.785,-1.844 4.828,-1.844 0.664,0 1.313,0.07 1.938,0.203 0.633,0.137 1.25,0.34 1.844,0.61 z"
         style="fill:#ed1c24;fill-opacity:1;fill-rule:nonzero;stroke:none"
         id="path22433"
         inkscape:connector-curvature="0" /><path
         d="m 520.30975,820.36209 c -1.156,0 -2.074,0.453 -2.75,1.36 -0.668,0.898 -1,2.132 -1,3.703 0,1.562 0.332,2.797 1,3.703 0.676,0.906 1.594,1.359 2.75,1.359 1.156,0 2.067,-0.453 2.735,-1.359 0.675,-0.906 1.015,-2.141 1.015,-3.703 0,-1.563 -0.34,-2.797 -1.015,-3.703 -0.668,-0.907 -1.579,-1.36 -2.735,-1.36 z m 0,-1.828 c 1.875,0 3.348,0.609 4.422,1.828 1.07,1.219 1.61,2.906 1.61,5.063 0,2.148 -0.54,3.836 -1.61,5.062 -1.074,1.219 -2.547,1.828 -4.422,1.828 -1.875,0 -3.351,-0.609 -4.422,-1.828 -1.062,-1.226 -1.593,-2.914 -1.593,-5.062 0,-2.157 0.531,-3.844 1.593,-5.063 1.071,-1.219 2.547,-1.828 4.422,-1.828 z"
         style="fill:#ed1c24;fill-opacity:1;fill-rule:nonzero;stroke:none"
         id="path22435"
         inkscape:connector-curvature="0" /><path
         d="m 538.79875,821.36209 c 0.539,-0.969 1.187,-1.68 1.937,-2.14 0.75,-0.457 1.629,-0.688 2.641,-0.688 1.363,0 2.414,0.481 3.156,1.438 0.75,0.949 1.125,2.308 1.125,4.078 v 7.922 h -2.172 v -7.86 c 0,-1.25 -0.227,-2.176 -0.672,-2.781 -0.437,-0.613 -1.117,-0.922 -2.031,-0.922 -1.117,0 -2,0.371 -2.656,1.109 -0.649,0.743 -0.969,1.75 -0.969,3.032 v 7.422 h -2.172 v -7.86 c 0,-1.258 -0.227,-2.191 -0.672,-2.797 -0.437,-0.601 -1.121,-0.906 -2.047,-0.906 -1.105,0 -1.984,0.375 -2.64,1.125 -0.649,0.742 -0.969,1.746 -0.969,3.016 v 7.422 h -2.156 v -13.125 h 2.156 v 2.031 c 0.5,-0.801 1.094,-1.391 1.781,-1.766 0.688,-0.383 1.5,-0.578 2.438,-0.578 0.957,0 1.769,0.246 2.437,0.734 0.664,0.481 1.16,1.18 1.485,2.094 z"
         style="fill:#ed1c24;fill-opacity:1;fill-rule:nonzero;stroke:none"
         id="path22437"
         inkscape:connector-curvature="0" /><path
         d="m 551.35275,828.98709 v 2.984 h -2.484 v -2.984 z"
         style="fill:#ed1c24;fill-opacity:1;fill-rule:nonzero;stroke:none"
         id="path22439"
         inkscape:connector-curvature="0" /><path
         d="m 564.66575,825.42509 c 0,-1.594 -0.328,-2.836 -0.985,-3.735 -0.648,-0.906 -1.543,-1.359 -2.687,-1.359 -1.137,0 -2.031,0.453 -2.688,1.359 -0.656,0.899 -0.984,2.141 -0.984,3.735 0,1.586 0.328,2.828 0.984,3.734 0.657,0.898 1.551,1.344 2.688,1.344 1.144,0 2.039,-0.446 2.687,-1.344 0.657,-0.906 0.985,-2.148 0.985,-3.734 z m -7.344,-4.594 c 0.457,-0.781 1.031,-1.359 1.719,-1.734 0.695,-0.375 1.523,-0.563 2.484,-0.563 1.594,0 2.883,0.637 3.875,1.906 1,1.262 1.5,2.922 1.5,4.985 0,2.062 -0.5,3.73 -1.5,5 -0.992,1.261 -2.281,1.89 -3.875,1.89 -0.961,0 -1.789,-0.187 -2.484,-0.562 -0.688,-0.383 -1.262,-0.969 -1.719,-1.75 v 1.969 h -2.156 v -18.235 h 2.156 z"
         style="fill:#ed1c24;fill-opacity:1;fill-rule:nonzero;stroke:none"
         id="path22441"
         inkscape:connector-curvature="0" /><path
         d="m 576.19675,820.86209 c -0.25,-0.144 -0.516,-0.25 -0.797,-0.312 -0.281,-0.063 -0.594,-0.094 -0.937,-0.094 -1.219,0 -2.157,0.398 -2.813,1.187 -0.656,0.793 -0.984,1.93 -0.984,3.407 v 6.922 h -2.157 v -13.125 h 2.157 v 2.031 c 0.457,-0.789 1.047,-1.379 1.765,-1.766 0.727,-0.383 1.614,-0.578 2.657,-0.578 0.144,0 0.304,0.012 0.484,0.031 0.187,0.012 0.391,0.039 0.609,0.078 z"
         style="fill:#ed1c24;fill-opacity:1;fill-rule:nonzero;stroke:none"
         id="path22443"
         inkscape:connector-curvature="0" /><path
         d="m 86.34175,405.95609 -3.204,8.719 h 6.422 z m -1.329,-2.328 h 2.672 l 6.672,17.5 h -2.453 l -1.594,-4.485 h -7.89 l -1.594,4.485 h -2.5 z"
         style="fill:#ff0000;fill-opacity:1;fill-rule:nonzero;stroke:none"
         id="path22445"
         inkscape:connector-curvature="0" /><path
         d="m 226.08775,412.01809 v 6.407 h 3.796 c 1.282,0 2.223,-0.258 2.829,-0.782 0.613,-0.531 0.921,-1.336 0.921,-2.421 0,-1.094 -0.308,-1.899 -0.921,-2.422 -0.606,-0.52 -1.547,-0.782 -2.829,-0.782 z m 0,-7.187 v 5.266 h 3.515 c 1.156,0 2.016,-0.211 2.578,-0.641 0.563,-0.438 0.844,-1.102 0.844,-2 0,-0.875 -0.281,-1.531 -0.844,-1.969 -0.562,-0.437 -1.422,-0.656 -2.578,-0.656 z m -2.36,-1.953 h 6.047 c 1.801,0 3.191,0.375 4.172,1.125 0.977,0.75 1.469,1.82 1.469,3.203 0,1.074 -0.25,1.93 -0.75,2.562 -0.5,0.625 -1.235,1.016 -2.203,1.172 1.156,0.25 2.054,0.774 2.703,1.563 0.644,0.793 0.968,1.781 0.968,2.969 0,1.562 -0.531,2.773 -1.593,3.625 -1.063,0.855 -2.575,1.281 -4.532,1.281 h -6.281 z"
         style="fill:#ff0000;fill-opacity:1;fill-rule:nonzero;stroke:none"
         id="path22447"
         inkscape:connector-curvature="0" /><path
         d="m 377.00175,404.59709 v 2.5 c -0.793,-0.739 -1.641,-1.29 -2.547,-1.657 -0.899,-0.375 -1.856,-0.562 -2.875,-0.562 -2,0 -3.531,0.617 -4.594,1.844 -1.062,1.218 -1.594,2.984 -1.594,5.296 0,2.305 0.532,4.071 1.594,5.297 1.063,1.219 2.594,1.828 4.594,1.828 1.019,0 1.976,-0.179 2.875,-0.546 0.906,-0.364 1.754,-0.922 2.547,-1.672 v 2.484 c -0.825,0.563 -1.7,0.984 -2.625,1.266 -0.93,0.281 -1.907,0.422 -2.938,0.422 -2.648,0 -4.734,-0.813 -6.265,-2.438 -1.524,-1.625 -2.282,-3.836 -2.282,-6.641 0,-2.812 0.758,-5.023 2.282,-6.64 1.531,-1.625 3.617,-2.438 6.265,-2.438 1.051,0 2.035,0.141 2.953,0.422 0.926,0.274 1.797,0.684 2.61,1.235 z"
         style="fill:#ff0000;fill-opacity:1;fill-rule:nonzero;stroke:none"
         id="path22449"
         inkscape:connector-curvature="0" /><path
         d="m 508.21975,404.08109 v 13.594 h 2.86 c 2.414,0 4.179,-0.547 5.297,-1.641 1.125,-1.094 1.687,-2.816 1.687,-5.172 0,-2.344 -0.562,-4.055 -1.687,-5.14 -1.118,-1.094 -2.883,-1.641 -5.297,-1.641 z m -2.359,-1.953 h 4.859 c 3.395,0 5.883,0.711 7.469,2.125 1.582,1.406 2.375,3.609 2.375,6.609 0,3.012 -0.797,5.227 -2.39,6.641 -1.594,1.418 -4.079,2.125 -7.454,2.125 h -4.859 z"
         style="fill:#ff0000;fill-opacity:1;fill-rule:nonzero;stroke:none"
         id="path22451"
         inkscape:connector-curvature="0" /><path
         d="m 564.54812,479.22985 h 3.859 v -13.344 l -4.203,0.844 v -2.156 l 4.188,-0.844 h 2.359 v 15.5 h 3.875 v 2 h -10.078 z"
         style="fill:#ed1c24;fill-opacity:1;fill-rule:nonzero;stroke:none"
         id="path22453"
         inkscape:connector-curvature="0" /><path
         d="m 566.2925,622.94085 h 8.265 v 2 h -11.109 v -2 c 0.895,-0.926 2.117,-2.172 3.672,-3.734 1.551,-1.571 2.523,-2.582 2.922,-3.032 0.758,-0.851 1.285,-1.57 1.578,-2.156 0.301,-0.594 0.453,-1.176 0.453,-1.75 0,-0.926 -0.328,-1.68 -0.984,-2.265 -0.649,-0.594 -1.492,-0.891 -2.532,-0.891 -0.75,0 -1.539,0.133 -2.359,0.391 -0.824,0.261 -1.703,0.652 -2.641,1.171 v -2.39 c 0.958,-0.383 1.848,-0.672 2.672,-0.86 0.832,-0.195 1.594,-0.297 2.282,-0.297 1.812,0 3.254,0.454 4.328,1.36 1.082,0.906 1.625,2.117 1.625,3.625 0,0.719 -0.137,1.402 -0.407,2.047 -0.273,0.648 -0.761,1.406 -1.468,2.281 -0.2,0.23 -0.824,0.887 -1.875,1.969 -1.043,1.086 -2.516,2.594 -4.422,4.531 z"
         style="fill:#ed1c24;fill-opacity:1;fill-rule:nonzero;stroke:none"
         id="path22455"
         inkscape:connector-curvature="0" /><path
         d="m 570.8545,758.63133 c 1.133,0.242 2.02,0.746 2.657,1.516 0.632,0.761 0.953,1.703 0.953,2.828 0,1.73 -0.594,3.07 -1.782,4.015 -1.187,0.95 -2.875,1.422 -5.062,1.422 -0.731,0 -1.484,-0.074 -2.266,-0.219 -0.773,-0.144 -1.574,-0.363 -2.406,-0.656 v -2.281 c 0.656,0.387 1.375,0.68 2.156,0.875 0.782,0.187 1.598,0.281 2.453,0.281 1.477,0 2.61,-0.289 3.391,-0.875 0.781,-0.582 1.172,-1.437 1.172,-2.562 0,-1.032 -0.367,-1.832 -1.094,-2.407 -0.719,-0.582 -1.726,-0.875 -3.015,-0.875 h -2.032 v -1.953 h 2.125 c 1.164,0 2.055,-0.226 2.672,-0.687 0.613,-0.469 0.922,-1.141 0.922,-2.016 0,-0.894 -0.32,-1.582 -0.953,-2.062 -0.637,-0.489 -1.547,-0.735 -2.734,-0.735 -0.649,0 -1.344,0.075 -2.094,0.219 -0.742,0.137 -1.555,0.356 -2.438,0.656 v -2.109 c 0.895,-0.25 1.735,-0.438 2.516,-0.563 0.789,-0.125 1.535,-0.187 2.234,-0.187 1.789,0 3.207,0.414 4.25,1.234 1.051,0.813 1.578,1.914 1.578,3.297 0,0.969 -0.277,1.789 -0.828,2.453 -0.554,0.668 -1.343,1.133 -2.375,1.391 z"
         style="fill:#ed1c24;fill-opacity:1;fill-rule:nonzero;stroke:none"
         id="path22457"
         inkscape:connector-curvature="0" /><g
         transform="matrix(1.121206,0,0,1.1060878,3.1315562,-88.528656)"
         id="g23259"><g
           transform="matrix(0,1,1,0,844.15375,388.82709)"
           id="g22459"><path
             inkscape:connector-curvature="0"
             id="path22461"
             style="fill:none;stroke:#ff0000;stroke-width:1.36178398;stroke-linecap:butt;stroke-linejoin:miter;stroke-miterlimit:4;stroke-dasharray:none;stroke-opacity:1"
             d="m 422.918,-724.266 c -12.488,-1 -18.082,-3.578 -22.234,9.325 0,0 -5.227,-2.25 -4.36,-0.313 1.125,2.524 3.039,2.805 3.039,2.805 0,0 -7.859,-1.278 -6.32,0.164 1.43,1.34 6.176,5.738 6.176,5.738 3.144,16.711 8.801,14.652 23.699,13.067" /></g><g
           transform="matrix(0,1,1,0,844.15375,388.82709)"
           id="g22463"><path
             inkscape:connector-curvature="0"
             id="path22465"
             style="fill:#ff0000;fill-opacity:1;fill-rule:nonzero;stroke:#ff0000;stroke-width:0.120102;stroke-linecap:butt;stroke-linejoin:miter;stroke-miterlimit:4;stroke-dasharray:none;stroke-opacity:1"
             d="m 405.512,-722.57 c 0,0 -5.942,-6.582 -2.473,-12.891 3.469,-6.312 29.242,-13.953 28.441,-6.601 -1.453,13.304 -21.742,15.261 -21.742,15.261 l -0.105,2.063 z" /></g><g
           transform="matrix(0,1,1,0,844.15375,388.82709)"
           id="g22467"><path
             inkscape:connector-curvature="0"
             id="path22469"
             style="fill:#ff0000;fill-opacity:1;fill-rule:nonzero;stroke:#ff0000;stroke-width:0.120102;stroke-linecap:butt;stroke-linejoin:miter;stroke-miterlimit:4;stroke-dasharray:none;stroke-opacity:1"
             d="m 405.016,-694.832 c 0,0 -5.942,6.582 -2.473,12.891 3.469,6.312 29.242,13.953 28.441,6.601 -1.453,-13.305 -21.746,-15.262 -21.746,-15.262 l -0.101,-2.062 z" /></g><g
           transform="matrix(1,0,0,-1,844.15375,388.82709)"
           id="g22471"><path
             inkscape:connector-curvature="0"
             id="path22473"
             style="fill:none;stroke:#ff0000;stroke-width:1.36178398;stroke-linecap:butt;stroke-linejoin:round;stroke-miterlimit:4;stroke-dasharray:none;stroke-opacity:1"
             d="m -710.543,-412.93 c 0,3.242 -1.969,5.871 -4.395,5.871 -2.429,0 -4.394,-2.629 -4.394,-5.871 0,-3.246 1.965,-5.875 4.394,-5.875 2.426,0 4.395,2.629 4.395,5.875 z" /></g><g
           transform="translate(844.15375,388.82709)"
           id="g22475"><path
             inkscape:connector-curvature="0"
             id="path22477"
             style="fill:#ff0000;fill-opacity:1;fill-rule:nonzero;stroke:#ff0000;stroke-width:1.36178398;stroke-linecap:butt;stroke-linejoin:round;stroke-miterlimit:4;stroke-dasharray:none;stroke-opacity:1"
             d="m -710.898,413.805 c 0,1.707 -1.016,3.09 -2.27,3.09 -1.254,0 -2.27,-1.383 -2.27,-3.09 0,-1.707 1.016,-3.094 2.27,-3.094 1.254,0 2.27,1.387 2.27,3.094 z" /></g><g
           transform="rotate(180,422.07687,194.41354)"
           id="g22479"><path
             inkscape:connector-curvature="0"
             id="path22481"
             style="fill:none;stroke:#ff0000;stroke-width:1.36178398;stroke-linecap:butt;stroke-linejoin:round;stroke-miterlimit:4;stroke-dasharray:none;stroke-opacity:1"
             d="m 707.07,-412.93 c 0,3.242 -1.965,5.871 -4.394,5.871 -2.426,0 -4.395,-2.629 -4.395,-5.871 0,-3.246 1.969,-5.875 4.395,-5.875 2.429,0 4.394,2.629 4.394,5.875 z" /></g><g
           transform="matrix(-1,0,0,1,844.15375,388.82709)"
           id="g22483"><path
             inkscape:connector-curvature="0"
             id="path22485"
             style="fill:#ff0000;fill-opacity:1;fill-rule:nonzero;stroke:#ff0000;stroke-width:1.36178398;stroke-linecap:butt;stroke-linejoin:round;stroke-miterlimit:4;stroke-dasharray:none;stroke-opacity:1"
             d="m 706.719,413.805 c 0,1.707 -1.016,3.09 -2.27,3.09 -1.254,0 -2.269,-1.383 -2.269,-3.09 0,-1.707 1.015,-3.09 2.269,-3.09 1.254,0 2.27,1.383 2.27,3.09 z" /></g><g
           transform="matrix(0,1,1,0,844.15375,388.82709)"
           id="g22487"><path
             inkscape:connector-curvature="0"
             id="path22489"
             style="fill:none;stroke:#ff0000;stroke-width:1.36178398;stroke-linecap:butt;stroke-linejoin:miter;stroke-miterlimit:4;stroke-dasharray:none;stroke-opacity:1"
             d="m 428.73,-708.75 13.5,0.516 c 9.887,-17.293 -9.55,-26.309 -18.652,-17.121 -3.293,4.937 5.254,17.019 5.254,17.019 z" /></g><g
           transform="matrix(0,1,1,0,844.15375,388.82709)"
           id="g22491"><path
             inkscape:connector-curvature="0"
             id="path22493"
             style="fill:none;stroke:#ff0000;stroke-width:1.36178398;stroke-linecap:butt;stroke-linejoin:miter;stroke-miterlimit:4;stroke-dasharray:none;stroke-opacity:1"
             d="m 428.832,-708.543 13.398,0.309 c 9.887,17.293 -9.55,26.308 -18.652,17.121 -3.293,-4.938 5.254,-17.02 5.254,-17.02 z" /></g><g
           transform="matrix(1,0,0,0.999111,844.15375,388.82709)"
           id="g22495"><path
             inkscape:connector-curvature="0"
             id="path22497"
             style="fill:#ff0000;fill-opacity:1;fill-rule:nonzero;stroke:#ff0000;stroke-width:1.36239004;stroke-linecap:butt;stroke-linejoin:round;stroke-miterlimit:4;stroke-dasharray:none;stroke-opacity:1"
             d="m -723.836,432.017 c 0,0.504 -0.41,0.911 -0.914,0.911 -0.504,0 -0.914,-0.407 -0.914,-0.911 0,-0.504 0.41,-0.915 0.914,-0.915 0.504,0 0.914,0.411 0.914,0.915 z" /></g><g
           transform="matrix(1,0,0,0.999111,844.15375,388.82709)"
           id="g22499"><path
             inkscape:connector-curvature="0"
             id="path22501"
             style="fill:#ff0000;fill-opacity:1;fill-rule:nonzero;stroke:#ff0000;stroke-width:1.36239004;stroke-linecap:butt;stroke-linejoin:round;stroke-miterlimit:4;stroke-dasharray:none;stroke-opacity:1"
             d="m -722.895,437.053 c 0,0.504 -0.41,0.915 -0.914,0.915 -0.503,0 -0.914,-0.411 -0.914,-0.915 0,-0.505 0.411,-0.911 0.914,-0.911 0.504,0 0.914,0.406 0.914,0.911 z" /></g><g
           transform="matrix(1,0,0,0.999111,844.15375,388.82709)"
           id="g22503"><path
             inkscape:connector-curvature="0"
             id="path22505"
             style="fill:#ff0000;fill-opacity:1;fill-rule:nonzero;stroke:#ff0000;stroke-width:1.36239004;stroke-linecap:butt;stroke-linejoin:round;stroke-miterlimit:4;stroke-dasharray:none;stroke-opacity:1"
             d="m -716.086,432.518 c 0,0.504 -0.41,0.91 -0.914,0.91 -0.504,0 -0.914,-0.406 -0.914,-0.91 0,-0.505 0.41,-0.915 0.914,-0.915 0.504,0 0.914,0.41 0.914,0.915 z" /></g><g
           transform="matrix(1,0,0,0.999111,844.15375,388.82709)"
           id="g22507"><path
             inkscape:connector-curvature="0"
             id="path22509"
             style="fill:#ff0000;fill-opacity:1;fill-rule:nonzero;stroke:#ff0000;stroke-width:1.36239004;stroke-linecap:butt;stroke-linejoin:round;stroke-miterlimit:4;stroke-dasharray:none;stroke-opacity:1"
             d="m -715.262,438.703 c 0,0.504 -0.41,0.915 -0.914,0.915 -0.504,0 -0.914,-0.411 -0.914,-0.915 0,-0.505 0.41,-0.911 0.914,-0.911 0.504,0 0.914,0.406 0.914,0.911 z" /></g><g
           transform="matrix(1,0,0,0.999111,844.15375,388.82709)"
           id="g22511"><path
             inkscape:connector-curvature="0"
             id="path22513"
             style="fill:#ff0000;fill-opacity:1;fill-rule:nonzero;stroke:#ff0000;stroke-width:1.36239004;stroke-linecap:butt;stroke-linejoin:round;stroke-miterlimit:4;stroke-dasharray:none;stroke-opacity:1"
             d="m -719.594,441.181 c 0,0.505 -0.41,0.911 -0.914,0.911 -0.504,0 -0.914,-0.406 -0.914,-0.911 0,-0.504 0.41,-0.914 0.914,-0.914 0.504,0 0.914,0.41 0.914,0.914 z" /></g><g
           transform="matrix(-1,0,0,0.999111,844.15375,388.82709)"
           id="g22515"><path
             inkscape:connector-curvature="0"
             id="path22517"
             style="fill:#ff0000;fill-opacity:1;fill-rule:nonzero;stroke:#ff0000;stroke-width:1.36239004;stroke-linecap:butt;stroke-linejoin:round;stroke-miterlimit:4;stroke-dasharray:none;stroke-opacity:1"
             d="m 694.125,432.013 c 0,0.505 -0.41,0.915 -0.914,0.915 -0.504,0 -0.914,-0.41 -0.914,-0.915 0,-0.504 0.41,-0.911 0.914,-0.911 0.504,0 0.914,0.407 0.914,0.911 z" /></g><g
           transform="matrix(-1,0,0,0.999111,844.15375,388.82709)"
           id="g22519"><path
             inkscape:connector-curvature="0"
             id="path22521"
             style="fill:#ff0000;fill-opacity:1;fill-rule:nonzero;stroke:#ff0000;stroke-width:1.36239004;stroke-linecap:butt;stroke-linejoin:round;stroke-miterlimit:4;stroke-dasharray:none;stroke-opacity:1"
             d="m 695.066,437.053 c 0,0.504 -0.41,0.915 -0.914,0.915 -0.504,0 -0.914,-0.411 -0.914,-0.915 0,-0.505 0.41,-0.911 0.914,-0.911 0.504,0 0.914,0.406 0.914,0.911 z" /></g><g
           transform="matrix(-1,0,0,0.999111,844.15375,388.82709)"
           id="g22523"><path
             inkscape:connector-curvature="0"
             id="path22525"
             style="fill:#ff0000;fill-opacity:1;fill-rule:nonzero;stroke:#ff0000;stroke-width:1.36239004;stroke-linecap:butt;stroke-linejoin:round;stroke-miterlimit:4;stroke-dasharray:none;stroke-opacity:1"
             d="m 701.875,432.514 c 0,0.504 -0.41,0.914 -0.914,0.914 -0.504,0 -0.914,-0.41 -0.914,-0.914 0,-0.505 0.41,-0.911 0.914,-0.911 0.504,0 0.914,0.406 0.914,0.911 z" /></g><g
           transform="matrix(-1,0,0,0.999111,844.15375,388.82709)"
           id="g22527"><path
             inkscape:connector-curvature="0"
             id="path22529"
             style="fill:#ff0000;fill-opacity:1;fill-rule:nonzero;stroke:#ff0000;stroke-width:1.36239004;stroke-linecap:butt;stroke-linejoin:round;stroke-miterlimit:4;stroke-dasharray:none;stroke-opacity:1"
             d="m 702.699,438.703 c 0,0.504 -0.41,0.915 -0.914,0.915 -0.504,0 -0.914,-0.411 -0.914,-0.915 0,-0.505 0.41,-0.911 0.914,-0.911 0.504,0 0.914,0.406 0.914,0.911 z" /></g><g
           transform="matrix(-1,0,0,0.999111,844.15375,388.82709)"
           id="g22531"><path
             inkscape:connector-curvature="0"
             id="path22533"
             style="fill:#ff0000;fill-opacity:1;fill-rule:nonzero;stroke:#ff0000;stroke-width:1.36239004;stroke-linecap:butt;stroke-linejoin:round;stroke-miterlimit:4;stroke-dasharray:none;stroke-opacity:1"
             d="m 698.367,441.178 c 0,0.504 -0.41,0.914 -0.914,0.914 -0.504,0 -0.914,-0.41 -0.914,-0.914 0,-0.505 0.41,-0.911 0.914,-0.911 0.504,0 0.914,0.406 0.914,0.911 z" /></g><g
           transform="matrix(0,1,1,0,844.15375,388.82709)"
           id="g22535"><path
             inkscape:connector-curvature="0"
             id="path22537"
             style="fill:#ff0000;fill-opacity:1;fill-rule:nonzero;stroke:#ff0000;stroke-width:0.0160136;stroke-linecap:butt;stroke-linejoin:miter;stroke-miterlimit:4;stroke-dasharray:none;stroke-opacity:1"
             d="m 424.383,-702.871 c -0.008,0 -0.016,0 -0.028,0 -1.691,0 -3.246,-1.227 -3.246,-3.07 0,-1.465 1.055,-2.313 2.039,-2.602 -0.984,-0.289 -2.039,-1.141 -2.039,-2.602 0,-1.843 1.555,-3.07 3.246,-3.07 0.012,0 0.02,0 0.028,0 0.371,-0.008 4.121,0 7.179,5.668 0,0.004 0,0.004 0,0.004 -3.058,5.672 -6.808,5.68 -7.179,5.672" /></g></g><path
         inkscape:connector-curvature="0"
         id="path23082"
         d="M 20.958061,540.28425 H 64.657847"
         style="fill:#ff0000;stroke:#ff0000;stroke-width:2.25;stroke-linecap:butt;stroke-linejoin:miter;stroke-miterlimit:4;stroke-dasharray:none;stroke-opacity:1" /><path
         inkscape:connector-curvature="0"
         id="path23082-5"
         d="M 31.214133,552.54695 H 52.61811"
         style="fill:#ff0000;stroke:#ff0000;stroke-width:2.25;stroke-linecap:butt;stroke-linejoin:miter;stroke-miterlimit:4;stroke-dasharray:none;stroke-opacity:1" /><path
         inkscape:connector-curvature="0"
         id="path23111"
         d="M 42.362038,554.47706 V 758.50342"
         style="fill:none;stroke:#ff0000;stroke-width:0.72996867px;stroke-linecap:butt;stroke-linejoin:miter;stroke-opacity:1" /><path
         inkscape:connector-curvature="0"
         id="path23117"
         d="M 42.362038,758.50342 H 81.156745"
         style="fill:none;stroke:#ff0000;stroke-width:0.75px;stroke-linecap:butt;stroke-linejoin:miter;stroke-opacity:1" /><path
         inkscape:connector-curvature="0"
         id="path23261"
         d="m 42.882209,538.56117 v -64.008"
         style="fill:none;stroke:#ff0000;stroke-width:0.75px;stroke-linecap:butt;stroke-linejoin:miter;stroke-opacity:1" /><path
         inkscape:connector-curvature="0"
         id="path23267"
         d="M 42.882209,474.55317 H 82.611317"
         style="fill:none;stroke:#ff0000;stroke-width:0.75px;stroke-linecap:butt;stroke-linejoin:miter;stroke-opacity:1" /></g></g></svg>